<?xml version="1.0" encoding="UTF-8"?>
<svg width="24px" height="24px" viewBox="0 0 24 24" version="1.1" xmlns="http://www.w3.org/2000/svg" xmlns:xlink="http://www.w3.org/1999/xlink">
    <title>places/128/folder-desktop</title>
    <defs>
        <filter x="-7.1%" y="-8.2%" width="114.3%" height="116.5%" filterUnits="objectBoundingBox" id="filter-1">
            <feOffset dx="0" dy="0" in="SourceAlpha" result="shadowOffsetOuter1"></feOffset>
            <feGaussianBlur stdDeviation="0.5" in="shadowOffsetOuter1" result="shadowBlurOuter1"></feGaussianBlur>
            <feColorMatrix values="0 0 0 0 0   0 0 0 0 0   0 0 0 0 0  0 0 0 0.2 0" type="matrix" in="shadowBlurOuter1" result="shadowMatrixOuter1"></feColorMatrix>
            <feMerge>
                <feMergeNode in="shadowMatrixOuter1"></feMergeNode>
                <feMergeNode in="SourceGraphic"></feMergeNode>
            </feMerge>
        </filter>
        <linearGradient x1="50%" y1="0%" x2="50%" y2="100%" id="linearGradient-2">
            <stop stop-color="#5C95FA" offset="0%"></stop>
            <stop stop-color="#053BAF" offset="100%"></stop>
        </linearGradient>
        <linearGradient x1="50%" y1="0%" x2="50%" y2="100%" id="linearGradient-3">
            <stop stop-color="#5C95FA" offset="0%"></stop>
            <stop stop-color="#053BAF" offset="100%"></stop>
        </linearGradient>
        <path d="M21,5.71875 L21,16.78125 C21,17.5579004 20.3704004,18.1875 19.59375,18.1875 L0.75,18.1875 L0.75,17.8165538 L0.815109819,17.8165538 C1.20338726,17.8226448 1.49389179,17.5092833 1.49998283,17.1210059 L1.49998283,5.71875 C1.49997972,4.94986607 2.11704933,4.32510581 2.88297386,4.3126864 L2.9062308,4.3125 L19.59375,4.3125 C20.3704004,4.3125 21,4.94209957 21,5.71875 Z" id="path-4"></path>
        <filter x="-7.4%" y="-10.8%" width="114.8%" height="121.6%" filterUnits="objectBoundingBox" id="filter-5">
            <feGaussianBlur stdDeviation="1" in="SourceAlpha" result="shadowBlurInner1"></feGaussianBlur>
            <feOffset dx="-1" dy="0" in="shadowBlurInner1" result="shadowOffsetInner1"></feOffset>
            <feComposite in="shadowOffsetInner1" in2="SourceAlpha" operator="arithmetic" k2="-1" k3="1" result="shadowInnerInner1"></feComposite>
            <feColorMatrix values="0 0 0 0 0.849517673   0 0 0 0 0.961168321   0 0 0 0 1  0 0 0 0.5 0" type="matrix" in="shadowInnerInner1"></feColorMatrix>
        </filter>
        <linearGradient x1="50%" y1="0%" x2="50%" y2="100%" id="linearGradient-6">
            <stop stop-color="#FFFFFF" stop-opacity="0.2" offset="0%"></stop>
            <stop stop-color="#48A9FF" stop-opacity="0.6" offset="88.128397%"></stop>
            <stop stop-color="#2057FF" offset="100%"></stop>
        </linearGradient>
        <path d="M21,5.71875 L21,16.78125 C21,17.5579004 20.3704004,18.1875 19.59375,18.1875 L0.75,18.1875 L0.75,17.8165538 L0.815109819,17.8165538 C1.20338726,17.8226448 1.49389179,17.5092833 1.49998283,17.1210059 L1.49998283,5.71875 C1.49997972,4.94986607 2.11704933,4.32510581 2.88297386,4.3126864 L2.9062308,4.3125 L19.59375,4.3125 C20.3704004,4.3125 21,4.94209957 21,5.71875 Z" id="path-7"></path>
        <filter x="-2.5%" y="-3.6%" width="104.9%" height="107.2%" filterUnits="objectBoundingBox" id="filter-8">
            <feGaussianBlur stdDeviation="0.5" in="SourceAlpha" result="shadowBlurInner1"></feGaussianBlur>
            <feOffset dx="0" dy="0" in="shadowBlurInner1" result="shadowOffsetInner1"></feOffset>
            <feComposite in="shadowOffsetInner1" in2="SourceAlpha" operator="arithmetic" k2="-1" k3="1" result="shadowInnerInner1"></feComposite>
            <feColorMatrix values="0 0 0 0 1   0 0 0 0 1   0 0 0 0 1  0 0 0 0.5 0" type="matrix" in="shadowInnerInner1" result="shadowMatrixInner1"></feColorMatrix>
            <feGaussianBlur stdDeviation="0.5" in="SourceAlpha" result="shadowBlurInner2"></feGaussianBlur>
            <feOffset dx="0" dy="-0" in="shadowBlurInner2" result="shadowOffsetInner2"></feOffset>
            <feComposite in="shadowOffsetInner2" in2="SourceAlpha" operator="arithmetic" k2="-1" k3="1" result="shadowInnerInner2"></feComposite>
            <feColorMatrix values="0 0 0 0 0   0 0 0 0 0.166509758   0 0 0 0 0.842164855  0 0 0 0.3 0" type="matrix" in="shadowInnerInner2" result="shadowMatrixInner2"></feColorMatrix>
            <feMerge>
                <feMergeNode in="shadowMatrixInner1"></feMergeNode>
                <feMergeNode in="shadowMatrixInner2"></feMergeNode>
            </feMerge>
        </filter>
        <linearGradient x1="50%" y1="50%" x2="-8.8748453e-13%" y2="50%" id="linearGradient-9">
            <stop stop-color="#1955FB" offset="0%"></stop>
            <stop stop-color="#053BAF" offset="100%"></stop>
        </linearGradient>
        <linearGradient x1="52.0842145%" y1="4.90831823%" x2="52.0842145%" y2="100%" id="linearGradient-10">
            <stop stop-color="#FFFFFF" offset="0%"></stop>
            <stop stop-color="#FFFFFF" stop-opacity="0.6" offset="100%"></stop>
        </linearGradient>
        <path d="M0.96145695,0 L8.41354305,5.66771337e-17 C8.74786258,-3.29310469e-17 8.86909492,0.0348096042 8.99131714,0.100174764 C9.11353936,0.165539924 9.20946008,0.261460639 9.27482524,0.383682861 C9.3401904,0.505905083 9.375,0.627137423 9.375,0.96145695 L9.375,5.60104305 C9.375,5.93536258 9.3401904,6.05659492 9.27482524,6.17881714 C9.20946008,6.30103936 9.11353936,6.39696008 8.99131714,6.46232524 C8.86909492,6.5276904 8.74786258,6.5625 8.41354305,6.5625 L0.96145695,6.5625 C0.627137423,6.5625 0.505905083,6.5276904 0.383682861,6.46232524 C0.261460639,6.39696008 0.165539924,6.30103936 0.100174764,6.17881714 C0.0348096042,6.05659492 0,5.93536258 0,5.60104305 L0,0.96145695 C0,0.627137423 0.0348096042,0.505905083 0.100174764,0.383682861 C0.165539924,0.261460639 0.261460639,0.165539924 0.383682861,0.100174764 C0.505905083,0.0348096042 0.627137423,0 0.96145695,0 Z" id="path-11"></path>
        <filter x="-32.0%" y="-45.7%" width="164.0%" height="191.4%" filterUnits="objectBoundingBox" id="filter-12">
            <feOffset dx="0" dy="0" in="SourceAlpha" result="shadowOffsetOuter1"></feOffset>
            <feGaussianBlur stdDeviation="1" in="shadowOffsetOuter1" result="shadowBlurOuter1"></feGaussianBlur>
            <feColorMatrix values="0 0 0 0 0   0 0 0 0 0.42745098   0 0 0 0 0.968627451  0 0 0 0.5 0" type="matrix" in="shadowBlurOuter1"></feColorMatrix>
        </filter>
    </defs>
    <g id="places/128/folder-desktop" stroke="none" fill="none">
        <g id="places/128/folder">
            <g id="Guide/128"></g>
            <g id="Group-2" filter="url(#filter-1)" stroke-width="1" fill-rule="evenodd" transform="translate(1.6875, 2.8125)">
                <path d="M10.6535763,1.28949808 C10.6730653,1.33289881 10.7014516,1.39738394 10.7283226,1.44144937 C11.0316567,1.93888363 11.5752985,2.25 12.1689037,2.25 L18,2.25 C18.9319805,2.25 19.6875,3.00551948 19.6875,3.9375 L19.6875,16.78125 C19.6875,17.5579004 19.0579004,18.1875 18.28125,18.1875 L0.703125,18.1875 C0.314799785,18.1875 0,17.8727002 0,17.484375 L0,1.40625 C0,0.629599571 0.629599571,0 1.40625,0 L9.01859632,0 C9.63574209,0 10.198883,0.336281469 10.4941196,0.868601987 C10.505146,0.888482871 10.5203213,0.924101861 10.5396456,0.975458957 L10.5929464,1.12465005 C10.619832,1.20428244 10.6400419,1.25923178 10.6535763,1.28949808 Z" id="Mask" fill="url(#linearGradient-2)"></path>
                <g id="路径">
                    <use fill="url(#linearGradient-3)" fill-rule="evenodd" xlink:href="#path-4"></use>
                    <use fill="black" fill-opacity="1" filter="url(#filter-5)" xlink:href="#path-4"></use>
                </g>
                <g id="Group">
                    <g id="路径">
                        <use fill="url(#linearGradient-6)" fill-rule="evenodd" xlink:href="#path-7"></use>
                        <use fill="black" fill-opacity="1" filter="url(#filter-8)" xlink:href="#path-7"></use>
                    </g>
                    <path d="M1.78125,0 C1.00459957,0 0.375,0.629599571 0.375,1.40625 L0.375,17.484375 C0.375,17.6655934 0.521906566,17.8130156 0.703125,17.8130156 L0.796828125,17.8130156 C0.978046239,17.8130147 1.12495267,17.6655931 1.12495394,17.484375 L1.12498283,5.71875 C1.12497972,4.94986607 1.74204933,4.32510581 2.50797386,4.3126864 L2.5312308,4.3125 L2.9062308,4.3125 L2.88297386,4.3126864 C2.11704933,4.32510581 1.49997972,4.94986607 1.49998283,5.71875 L1.5,17.484375 C1.5,17.8677847 1.19312036,18.179519 0.811586678,18.1875 L0.796875,18.1875 L0.703125,18.1875 C0.314799785,18.1875 0,17.8727002 0,17.484375 L0,1.40625 C0,0.629599571 0.629599571,0 1.40625,0 L1.78125,0 Z" id="路径" fill="url(#linearGradient-9)"></path>
                </g>
            </g>
        </g>
        <g id="Group" stroke-width="1" fill-rule="evenodd" transform="translate(8.4375, 10.875)">
            <g id="Combined-Shape">
                <use fill="black" fill-opacity="1" filter="url(#filter-12)" xlink:href="#path-11"></use>
                <use fill="url(#linearGradient-10)" fill-rule="evenodd" xlink:href="#path-11"></use>
            </g>
            <path d="M2.40299089,5.25 L6.97200911,5.25 C7.08338377,5.25 7.15329746,5.2674048 7.21440857,5.30008738 C7.27551968,5.33276996 7.32348004,5.38073032 7.35616262,5.44184143 C7.3888452,5.50295254 7.40625,5.57286623 7.40625,5.68424089 L7.40625,5.75325911 C7.40625,5.86463377 7.3888452,5.93454746 7.35616262,5.99565857 C7.32348004,6.05676968 7.27551968,6.10473004 7.21440857,6.13741262 C7.15329746,6.1700952 7.08338377,6.1875 6.97200911,6.1875 L2.40299089,6.1875 C2.29161623,6.1875 2.22170254,6.1700952 2.16059143,6.13741262 C2.09948032,6.10473004 2.05151996,6.05676968 2.01883738,5.99565857 C1.9861548,5.93454746 1.96875,5.86463377 1.96875,5.75325911 L1.96875,5.68424089 C1.96875,5.57286623 1.9861548,5.50295254 2.01883738,5.44184143 C2.05151996,5.38073032 2.09948032,5.33276996 2.16059143,5.30008738 C2.22170254,5.2674048 2.29161623,5.25 2.40299089,5.25 Z" id="Rectangle" fill="#5597FF"></path>
            <path d="M0.996740894,0.5625 L1.06575911,0.5625 C1.17713377,0.5625 1.24704746,0.579904802 1.30815857,0.612587382 C1.36926968,0.645269962 1.41723004,0.693230319 1.44991262,0.754341431 C1.4825952,0.815452542 1.5,0.885366227 1.5,0.996740894 L1.5,1.06575911 C1.5,1.17713377 1.4825952,1.24704746 1.44991262,1.30815857 C1.41723004,1.36926968 1.36926968,1.41723004 1.30815857,1.44991262 C1.24704746,1.4825952 1.17713377,1.5 1.06575911,1.5 L0.996740894,1.5 C0.885366227,1.5 0.815452542,1.4825952 0.754341431,1.44991262 C0.693230319,1.41723004 0.645269962,1.36926968 0.612587382,1.30815857 C0.579904802,1.24704746 0.5625,1.17713377 0.5625,1.06575911 L0.5625,0.996740894 C0.5625,0.885366227 0.579904802,0.815452542 0.612587382,0.754341431 C0.645269962,0.693230319 0.693230319,0.645269962 0.754341431,0.612587382 C0.815452542,0.579904802 0.885366227,0.5625 0.996740894,0.5625 Z" id="Rectangle" fill="#5597FF"></path>
            <path d="M0.996740894,2.4375 L1.06575911,2.4375 C1.17713377,2.4375 1.24704746,2.4549048 1.30815857,2.48758738 C1.36926968,2.52026996 1.41723004,2.56823032 1.44991262,2.62934143 C1.4825952,2.69045254 1.5,2.76036623 1.5,2.87174089 L1.5,2.94075911 C1.5,3.05213377 1.4825952,3.12204746 1.44991262,3.18315857 C1.41723004,3.24426968 1.36926968,3.29223004 1.30815857,3.32491262 C1.24704746,3.3575952 1.17713377,3.375 1.06575911,3.375 L0.996740894,3.375 C0.885366227,3.375 0.815452542,3.3575952 0.754341431,3.32491262 C0.693230319,3.29223004 0.645269962,3.24426968 0.612587382,3.18315857 C0.579904802,3.12204746 0.5625,3.05213377 0.5625,2.94075911 L0.5625,2.87174089 C0.5625,2.76036623 0.579904802,2.69045254 0.612587382,2.62934143 C0.645269962,2.56823032 0.693230319,2.52026996 0.754341431,2.48758738 C0.815452542,2.4549048 0.885366227,2.4375 0.996740894,2.4375 Z" id="Rectangle" fill="#5597FF"></path>
        </g>
    </g>
</svg>