<?xml version="1.0" encoding="UTF-8"?>
<svg width="25px" height="24px" viewBox="0 0 25 24" version="1.1" xmlns="http://www.w3.org/2000/svg" xmlns:xlink="http://www.w3.org/1999/xlink">
    <title>places/128/folder-safebox-lock</title>
    <defs>
        <filter x="-7.1%" y="-8.2%" width="114.3%" height="116.5%" filterUnits="objectBoundingBox" id="filter-1">
            <feOffset dx="0" dy="0" in="SourceAlpha" result="shadowOffsetOuter1"></feOffset>
            <feGaussianBlur stdDeviation="0.5" in="shadowOffsetOuter1" result="shadowBlurOuter1"></feGaussianBlur>
            <feColorMatrix values="0 0 0 0 0   0 0 0 0 0   0 0 0 0 0  0 0 0 0.2 0" type="matrix" in="shadowBlurOuter1" result="shadowMatrixOuter1"></feColorMatrix>
            <feMerge>
                <feMergeNode in="shadowMatrixOuter1"></feMergeNode>
                <feMergeNode in="SourceGraphic"></feMergeNode>
            </feMerge>
        </filter>
        <linearGradient x1="50%" y1="0%" x2="50%" y2="100%" id="linearGradient-2">
            <stop stop-color="#5C95FA" offset="0%"></stop>
            <stop stop-color="#053BAF" offset="100%"></stop>
        </linearGradient>
        <linearGradient x1="50%" y1="0%" x2="50%" y2="100%" id="linearGradient-3">
            <stop stop-color="#5C95FA" offset="0%"></stop>
            <stop stop-color="#053BAF" offset="100%"></stop>
        </linearGradient>
        <path d="M21,5.71875 L21,16.78125 C21,17.5579004 20.3704004,18.1875 19.59375,18.1875 L0.75,18.1875 L0.75,17.8165538 L0.815109819,17.8165538 C1.20338726,17.8226448 1.49389179,17.5092833 1.49998283,17.1210059 L1.49998283,5.71875 C1.49997972,4.94986607 2.11704933,4.32510581 2.88297386,4.3126864 L2.9062308,4.3125 L19.59375,4.3125 C20.3704004,4.3125 21,4.94209957 21,5.71875 Z" id="path-4"></path>
        <filter x="-7.4%" y="-10.8%" width="114.8%" height="121.6%" filterUnits="objectBoundingBox" id="filter-5">
            <feGaussianBlur stdDeviation="1" in="SourceAlpha" result="shadowBlurInner1"></feGaussianBlur>
            <feOffset dx="-1" dy="0" in="shadowBlurInner1" result="shadowOffsetInner1"></feOffset>
            <feComposite in="shadowOffsetInner1" in2="SourceAlpha" operator="arithmetic" k2="-1" k3="1" result="shadowInnerInner1"></feComposite>
            <feColorMatrix values="0 0 0 0 1   0 0 0 0 1   0 0 0 0 1  0 0 0 0.5 0" type="matrix" in="shadowInnerInner1"></feColorMatrix>
        </filter>
        <linearGradient x1="50%" y1="0%" x2="50%" y2="100%" id="linearGradient-6">
            <stop stop-color="#FFFFFF" stop-opacity="0.2" offset="0%"></stop>
            <stop stop-color="#48A9FF" stop-opacity="0.6" offset="88.128397%"></stop>
            <stop stop-color="#2057FF" offset="100%"></stop>
        </linearGradient>
        <path d="M21,5.71875 L21,16.78125 C21,17.5579004 20.3704004,18.1875 19.59375,18.1875 L0.75,18.1875 L0.75,17.8165538 L0.815109819,17.8165538 C1.20338726,17.8226448 1.49389179,17.5092833 1.49998283,17.1210059 L1.49998283,5.71875 C1.49997972,4.94986607 2.11704933,4.32510581 2.88297386,4.3126864 L2.9062308,4.3125 L19.59375,4.3125 C20.3704004,4.3125 21,4.94209957 21,5.71875 Z" id="path-7"></path>
        <filter x="-2.5%" y="-3.6%" width="104.9%" height="107.2%" filterUnits="objectBoundingBox" id="filter-8">
            <feGaussianBlur stdDeviation="0.5" in="SourceAlpha" result="shadowBlurInner1"></feGaussianBlur>
            <feOffset dx="0" dy="0" in="shadowBlurInner1" result="shadowOffsetInner1"></feOffset>
            <feComposite in="shadowOffsetInner1" in2="SourceAlpha" operator="arithmetic" k2="-1" k3="1" result="shadowInnerInner1"></feComposite>
            <feColorMatrix values="0 0 0 0 1   0 0 0 0 1   0 0 0 0 1  0 0 0 0.5 0" type="matrix" in="shadowInnerInner1" result="shadowMatrixInner1"></feColorMatrix>
            <feGaussianBlur stdDeviation="0.5" in="SourceAlpha" result="shadowBlurInner2"></feGaussianBlur>
            <feOffset dx="0" dy="-0" in="shadowBlurInner2" result="shadowOffsetInner2"></feOffset>
            <feComposite in="shadowOffsetInner2" in2="SourceAlpha" operator="arithmetic" k2="-1" k3="1" result="shadowInnerInner2"></feComposite>
            <feColorMatrix values="0 0 0 0 0   0 0 0 0 0.166509758   0 0 0 0 0.842164855  0 0 0 0.3 0" type="matrix" in="shadowInnerInner2" result="shadowMatrixInner2"></feColorMatrix>
            <feMerge>
                <feMergeNode in="shadowMatrixInner1"></feMergeNode>
                <feMergeNode in="shadowMatrixInner2"></feMergeNode>
            </feMerge>
        </filter>
        <linearGradient x1="50%" y1="50%" x2="-8.8748453e-13%" y2="50%" id="linearGradient-9">
            <stop stop-color="#1955FB" offset="0%"></stop>
            <stop stop-color="#053BAF" offset="100%"></stop>
        </linearGradient>
        <linearGradient x1="52.0842145%" y1="4.90831823%" x2="52.0842145%" y2="100%" id="linearGradient-10">
            <stop stop-color="#FFFFFF" offset="0%"></stop>
            <stop stop-color="#FFFFFF" stop-opacity="0.6" offset="100%"></stop>
        </linearGradient>
        <path d="M12.75,9.84375 C15.0281746,9.84375 16.875,11.6905754 16.875,13.96875 C16.875,16.2469246 15.0281746,18.09375 12.75,18.09375 C10.4718254,18.09375 8.625,16.2469246 8.625,13.96875 C8.625,11.6905754 10.4718254,9.84375 12.75,9.84375 Z M12.75,10.359375 C10.7565972,10.359375 9.140625,11.9753472 9.140625,13.96875 C9.140625,15.9621528 10.7565972,17.578125 12.75,17.578125 C14.7434028,17.578125 16.359375,15.9621528 16.359375,13.96875 C16.359375,11.9753472 14.7434028,10.359375 12.75,10.359375 Z M12.8003049,16.6852134 L12.8003049,16.9870427 L12.6996951,16.9870427 L12.6996951,16.6852134 L12.8003049,16.6852134 Z M12.2287504,16.6352089 L12.3278317,16.6526796 L12.2754196,16.9499234 L12.1763383,16.9324527 L12.2287504,16.6352089 Z M13.2712496,16.6352089 L13.3236617,16.9324527 L13.2245804,16.9499234 L13.1721683,16.6526796 L13.2712496,16.6352089 Z M13.7263563,16.5041853 L13.829588,16.7878121 L13.7350458,16.8222226 L13.6318141,16.5385959 L13.7263563,16.5041853 Z M11.7736437,16.5041853 L11.8681859,16.5385959 L11.7649542,16.8222226 L11.670412,16.7878121 L11.7736437,16.5041853 Z M14.151797,16.2961239 L14.3027116,16.5575157 L14.215581,16.6078206 L14.0646664,16.3464288 L14.151797,16.2961239 Z M11.348203,16.2961239 L11.4353336,16.3464288 L11.284419,16.6078206 L11.1972884,16.5575157 L11.348203,16.2961239 Z M14.5346448,16.0173464 L14.7286569,16.248561 L14.6515854,16.3132317 L14.4575732,16.0820171 L14.5346448,16.0173464 Z M10.9653552,16.0173464 L11.0424268,16.0820171 L10.8484146,16.3132317 L10.7713431,16.248561 L10.9653552,16.0173464 Z M14.8632671,15.6763232 L15.0944817,15.8703354 L15.029811,15.9474069 L14.7985964,15.7533948 L14.8632671,15.6763232 Z M10.6367329,15.6763232 L10.7014036,15.7533948 L10.470189,15.9474069 L10.4055183,15.8703354 L10.6367329,15.6763232 Z M15.1276788,15.2834164 L15.3890706,15.434331 L15.3387657,15.5214616 L15.0773739,15.370547 L15.1276788,15.2834164 Z M10.3723212,15.2834164 L10.4226261,15.370547 L10.1612343,15.5214616 L10.1109294,15.434331 L10.3723212,15.2834164 Z M12.75,12.1875 C13.2159903,12.1875 13.59375,12.5652597 13.59375,13.03125 L13.59375,13.5 L13.828125,13.5 C13.9834551,13.5 14.109375,13.6259199 14.109375,13.78125 L14.109375,15.1875 C14.109375,15.3428301 13.9834551,15.46875 13.828125,15.46875 L11.671875,15.46875 C11.5165449,15.46875 11.390625,15.3428301 11.390625,15.1875 L11.390625,13.78125 C11.390625,13.6259199 11.5165449,13.5 11.671875,13.5 L11.90625,13.5 L11.90625,13.03125 C11.90625,12.5652597 12.2840097,12.1875 12.75,12.1875 Z M15.3198459,14.8505641 L15.6034726,14.9537958 L15.5690621,15.048338 L15.2854353,14.9451063 L15.3198459,14.8505641 Z M10.1801541,14.8505641 L10.2145647,14.9451063 L9.93093792,15.048338 L9.89652736,14.9537958 L10.1801541,14.8505641 Z M15.4339296,14.3909183 L15.7311734,14.4433304 L15.7137027,14.5424117 L15.4164589,14.4899996 L15.4339296,14.3909183 Z M10.0660704,14.3909183 L10.0835411,14.4899996 L9.78629732,14.5424117 L9.76882661,14.4433304 L10.0660704,14.3909183 Z M10.0335366,13.9184451 L10.0335366,14.0190549 L9.73170732,14.0190549 L9.73170732,13.9184451 L10.0335366,13.9184451 Z M15.7682927,13.9184451 L15.7682927,14.0190549 L15.4664634,14.0190549 L15.4664634,13.9184451 L15.7682927,13.9184451 Z M9.78629732,13.3950883 L10.0835411,13.4475004 L10.0660704,13.5465817 L9.76882661,13.4941696 L9.78629732,13.3950883 Z M15.7137027,13.3950883 L15.7311734,13.4941696 L15.4339296,13.5465817 L15.4164589,13.4475004 L15.7137027,13.3950883 Z M12.75,12.65625 C12.5428932,12.65625 12.375,12.8241432 12.375,13.03125 L12.375,13.5 L13.125,13.5 L13.125,13.03125 C13.125,12.8241432 12.9571068,12.65625 12.75,12.65625 Z M9.93093792,12.889162 L10.2145647,12.9923937 L10.1801541,13.0869359 L9.89652736,12.9837042 L9.93093792,12.889162 Z M15.5690621,12.889162 L15.6034726,12.9837042 L15.3198459,13.0869359 L15.2854353,12.9923937 L15.5690621,12.889162 Z M15.3387657,12.4160384 L15.3890706,12.503169 L15.1276788,12.6540836 L15.0773739,12.566953 L15.3387657,12.4160384 Z M10.1612343,12.4160384 L10.4226261,12.566953 L10.3723212,12.6540836 L10.1109294,12.503169 L10.1612343,12.4160384 Z M15.029811,11.9900931 L15.0944817,12.0671646 L14.8632671,12.2611768 L14.7985964,12.1841052 L15.029811,11.9900931 Z M10.470189,11.9900931 L10.7014036,12.1841052 L10.6367329,12.2611768 L10.4055183,12.0671646 L10.470189,11.9900931 Z M14.6515854,11.6242683 L14.7286569,11.688939 L14.5346448,11.9201536 L14.4575732,11.8554829 L14.6515854,11.6242683 Z M10.8484146,11.6242683 L11.0424268,11.8554829 L10.9653552,11.9201536 L10.7713431,11.688939 L10.8484146,11.6242683 Z M14.215581,11.3296794 L14.3027116,11.3799843 L14.151797,11.6413761 L14.0646664,11.5910712 L14.215581,11.3296794 Z M11.284419,11.3296794 L11.4353336,11.5910712 L11.348203,11.6413761 L11.1972884,11.3799843 L11.284419,11.3296794 Z M13.7350458,11.1152774 L13.829588,11.1496879 L13.7263563,11.4333147 L13.6318141,11.3989041 L13.7350458,11.1152774 Z M11.7649542,11.1152774 L11.8681859,11.3989041 L11.7736437,11.4333147 L11.670412,11.1496879 L11.7649542,11.1152774 Z M13.2245804,10.9875766 L13.3236617,11.0050473 L13.2712496,11.3022911 L13.1721683,11.2848204 L13.2245804,10.9875766 Z M12.2754196,10.9875766 L12.3278317,11.2848204 L12.2287504,11.3022911 L12.1763383,11.0050473 L12.2754196,10.9875766 Z M12.8003049,10.9504573 L12.8003049,11.2522866 L12.6996951,11.2522866 L12.6996951,10.9504573 L12.8003049,10.9504573 Z" id="path-11"></path>
        <filter x="-18.2%" y="-18.2%" width="136.4%" height="136.4%" filterUnits="objectBoundingBox" id="filter-12">
            <feOffset dx="0" dy="0" in="SourceAlpha" result="shadowOffsetOuter1"></feOffset>
            <feGaussianBlur stdDeviation="0.5" in="shadowOffsetOuter1" result="shadowBlurOuter1"></feGaussianBlur>
            <feColorMatrix values="0 0 0 0 0   0 0 0 0 0.42745098   0 0 0 0 0.968627451  0 0 0 0.5 0" type="matrix" in="shadowBlurOuter1"></feColorMatrix>
        </filter>
    </defs>
    <g id="places/128/folder-safebox-lock" stroke="none" fill="none" transform="translate(0.75, 0)">
        <g id="places/128/folder" stroke-width="1" fill-rule="evenodd">
            <g id="Group-2" filter="url(#filter-1)" transform="translate(1.6875, 2.8125)">
                <path d="M10.6535763,1.28949808 C10.6730653,1.33289881 10.7014516,1.39738394 10.7283226,1.44144937 C11.0316567,1.93888363 11.5752985,2.25 12.1689037,2.25 L18,2.25 C18.9319805,2.25 19.6875,3.00551948 19.6875,3.9375 L19.6875,16.78125 C19.6875,17.5579004 19.0579004,18.1875 18.28125,18.1875 L0.703125,18.1875 C0.314799785,18.1875 0,17.8727002 0,17.484375 L0,1.40625 C0,0.629599571 0.629599571,0 1.40625,0 L9.01859632,0 C9.63574209,0 10.198883,0.336281469 10.4941196,0.868601987 C10.505146,0.888482871 10.5203213,0.924101861 10.5396456,0.975458957 L10.5929464,1.12465005 C10.619832,1.20428244 10.6400419,1.25923178 10.6535763,1.28949808 Z" id="Mask" fill="url(#linearGradient-2)"></path>
                <g id="路径">
                    <use fill="url(#linearGradient-3)" fill-rule="evenodd" xlink:href="#path-4"></use>
                    <use fill="black" fill-opacity="1" filter="url(#filter-5)" xlink:href="#path-4"></use>
                </g>
                <g id="Group">
                    <g id="路径">
                        <use fill="url(#linearGradient-6)" fill-rule="evenodd" xlink:href="#path-7"></use>
                        <use fill="black" fill-opacity="1" filter="url(#filter-8)" xlink:href="#path-7"></use>
                    </g>
                    <path d="M1.78125,0 C1.00459957,0 0.375,0.629599571 0.375,1.40625 L0.375,17.484375 C0.375,17.6655934 0.521906566,17.8130156 0.703125,17.8130156 L0.796828125,17.8130156 C0.978046239,17.8130147 1.12495267,17.6655931 1.12495394,17.484375 L1.12498283,5.71875 C1.12497972,4.94986607 1.74204933,4.32510581 2.50797386,4.3126864 L2.5312308,4.3125 L2.9062308,4.3125 L2.88297386,4.3126864 C2.11704933,4.32510581 1.49997972,4.94986607 1.49998283,5.71875 L1.5,17.484375 C1.5,17.8677847 1.19312036,18.179519 0.811586678,18.1875 L0.796875,18.1875 L0.703125,18.1875 C0.314799785,18.1875 0,17.8727002 0,17.484375 L0,1.40625 C0,0.629599571 0.629599571,0 1.40625,0 L1.78125,0 Z" id="路径" fill="url(#linearGradient-9)"></path>
                </g>
            </g>
            <g id="Guide/128"></g>
        </g>
        <g id="形状">
            <use fill="black" fill-opacity="1" filter="url(#filter-12)" xlink:href="#path-11"></use>
            <use fill="url(#linearGradient-10)" fill-rule="evenodd" xlink:href="#path-11"></use>
        </g>
    </g>
</svg>