<?xml version="1.0" encoding="UTF-8"?>
<svg width="24px" height="24px" viewBox="0 0 24 24" version="1.1" xmlns="http://www.w3.org/2000/svg" xmlns:xlink="http://www.w3.org/1999/xlink">
    <title>places/128/network-workgroup</title>
    <defs>
        <filter x="-7.1%" y="-8.2%" width="114.3%" height="116.5%" filterUnits="objectBoundingBox" id="filter-1">
            <feOffset dx="0" dy="0" in="SourceAlpha" result="shadowOffsetOuter1"></feOffset>
            <feGaussianBlur stdDeviation="0.5" in="shadowOffsetOuter1" result="shadowBlurOuter1"></feGaussianBlur>
            <feColorMatrix values="0 0 0 0 0   0 0 0 0 0   0 0 0 0 0  0 0 0 0.2 0" type="matrix" in="shadowBlurOuter1" result="shadowMatrixOuter1"></feColorMatrix>
            <feMerge>
                <feMergeNode in="shadowMatrixOuter1"></feMergeNode>
                <feMergeNode in="SourceGraphic"></feMergeNode>
            </feMerge>
        </filter>
        <linearGradient x1="50%" y1="0%" x2="50%" y2="100%" id="linearGradient-2">
            <stop stop-color="#5C95FA" offset="0%"></stop>
            <stop stop-color="#053BAF" offset="100%"></stop>
        </linearGradient>
        <linearGradient x1="50%" y1="0%" x2="50%" y2="100%" id="linearGradient-3">
            <stop stop-color="#5C95FA" offset="0%"></stop>
            <stop stop-color="#053BAF" offset="100%"></stop>
        </linearGradient>
        <path d="M21,5.71875 L21,16.78125 C21,17.5579004 20.3704004,18.1875 19.59375,18.1875 L0.75,18.1875 L0.75,17.8165538 L0.815109819,17.8165538 C1.20338726,17.8226448 1.49389179,17.5092833 1.49998283,17.1210059 L1.49998283,5.71875 C1.49997972,4.94986607 2.11704933,4.32510581 2.88297386,4.3126864 L2.9062308,4.3125 L19.59375,4.3125 C20.3704004,4.3125 21,4.94209957 21,5.71875 Z" id="path-4"></path>
        <filter x="-7.4%" y="-10.8%" width="114.8%" height="121.6%" filterUnits="objectBoundingBox" id="filter-5">
            <feGaussianBlur stdDeviation="1" in="SourceAlpha" result="shadowBlurInner1"></feGaussianBlur>
            <feOffset dx="-1" dy="0" in="shadowBlurInner1" result="shadowOffsetInner1"></feOffset>
            <feComposite in="shadowOffsetInner1" in2="SourceAlpha" operator="arithmetic" k2="-1" k3="1" result="shadowInnerInner1"></feComposite>
            <feColorMatrix values="0 0 0 0 0.849517673   0 0 0 0 0.961168321   0 0 0 0 1  0 0 0 0.5 0" type="matrix" in="shadowInnerInner1"></feColorMatrix>
        </filter>
        <linearGradient x1="50%" y1="0%" x2="50%" y2="100%" id="linearGradient-6">
            <stop stop-color="#FFFFFF" stop-opacity="0.2" offset="0%"></stop>
            <stop stop-color="#48A9FF" stop-opacity="0.6" offset="88.128397%"></stop>
            <stop stop-color="#2057FF" offset="100%"></stop>
        </linearGradient>
        <path d="M21,5.71875 L21,16.78125 C21,17.5579004 20.3704004,18.1875 19.59375,18.1875 L0.75,18.1875 L0.75,17.8165538 L0.815109819,17.8165538 C1.20338726,17.8226448 1.49389179,17.5092833 1.49998283,17.1210059 L1.49998283,5.71875 C1.49997972,4.94986607 2.11704933,4.32510581 2.88297386,4.3126864 L2.9062308,4.3125 L19.59375,4.3125 C20.3704004,4.3125 21,4.94209957 21,5.71875 Z" id="path-7"></path>
        <filter x="-2.5%" y="-3.6%" width="104.9%" height="107.2%" filterUnits="objectBoundingBox" id="filter-8">
            <feGaussianBlur stdDeviation="0.5" in="SourceAlpha" result="shadowBlurInner1"></feGaussianBlur>
            <feOffset dx="0" dy="0" in="shadowBlurInner1" result="shadowOffsetInner1"></feOffset>
            <feComposite in="shadowOffsetInner1" in2="SourceAlpha" operator="arithmetic" k2="-1" k3="1" result="shadowInnerInner1"></feComposite>
            <feColorMatrix values="0 0 0 0 1   0 0 0 0 1   0 0 0 0 1  0 0 0 0.5 0" type="matrix" in="shadowInnerInner1" result="shadowMatrixInner1"></feColorMatrix>
            <feGaussianBlur stdDeviation="0.5" in="SourceAlpha" result="shadowBlurInner2"></feGaussianBlur>
            <feOffset dx="0" dy="-0" in="shadowBlurInner2" result="shadowOffsetInner2"></feOffset>
            <feComposite in="shadowOffsetInner2" in2="SourceAlpha" operator="arithmetic" k2="-1" k3="1" result="shadowInnerInner2"></feComposite>
            <feColorMatrix values="0 0 0 0 0   0 0 0 0 0.166509758   0 0 0 0 0.842164855  0 0 0 0.3 0" type="matrix" in="shadowInnerInner2" result="shadowMatrixInner2"></feColorMatrix>
            <feMerge>
                <feMergeNode in="shadowMatrixInner1"></feMergeNode>
                <feMergeNode in="shadowMatrixInner2"></feMergeNode>
            </feMerge>
        </filter>
        <linearGradient x1="50%" y1="50%" x2="-8.8748453e-13%" y2="50%" id="linearGradient-9">
            <stop stop-color="#1955FB" offset="0%"></stop>
            <stop stop-color="#053BAF" offset="100%"></stop>
        </linearGradient>
        <linearGradient x1="50%" y1="0%" x2="50%" y2="100%" id="linearGradient-10">
            <stop stop-color="#FFFFFF" offset="0%"></stop>
            <stop stop-color="#FFFFFF" stop-opacity="0.6" offset="100%"></stop>
        </linearGradient>
        <path d="M15.3261283,9.95658065 C15.9071322,10.2866039 15.9769199,11.2244465 15.6458567,12.4027842 C16.7863605,12.7112667 17.53125,13.2296243 17.53125,13.875 C17.53125,14.5205621 16.78593,15.0390329 15.6450894,15.3466493 C15.9769418,16.5252582 15.9072237,17.4633441 15.3261283,17.7934193 C14.7507974,18.1202202 13.8978452,17.716042 13.0318422,16.8534817 C12.1646548,17.716042 11.3117026,18.1202202 10.7363717,17.7934193 C10.1552763,17.4633441 10.0855582,16.5252582 10.4167997,15.3466593 C9.27656998,15.0390329 8.53125,14.5205621 8.53125,13.875 C8.53125,13.2296243 9.27613947,12.7112667 10.4164221,12.4036174 C10.0855801,11.2244465 10.1553678,10.2866039 10.7363717,9.95658065 C11.311925,9.62965346 12.1653143,10.0342706 13.0316621,10.8975188 C13.8971857,10.0342706 14.750575,9.62965346 15.3261283,9.95658065 Z M10.9766179,15.4744709 L10.9337419,15.628039 C10.7068526,16.4904082 10.7305574,17.1318122 11.0222654,17.2978569 C11.3324846,17.4744384 11.9565606,17.1317449 12.6436359,16.4369983 C12.4265265,16.187378 12.211017,15.9112674 12.0013826,15.6130962 C11.6412686,15.5826508 11.2977781,15.5358874 10.9766179,15.4744709 Z M15.0864978,15.4749192 L14.8873604,15.5100878 C14.6244293,15.5542314 14.3480777,15.5888914 14.0612684,15.6133583 C13.851483,15.9112674 13.6359735,16.187378 13.4187911,16.4370984 C14.1059394,17.1317449 14.7300154,17.4744384 15.0402346,17.2978569 C15.3489589,17.1221263 15.357501,16.4139602 15.0864978,15.4749192 Z M12.7366052,15.6528398 L12.8610003,15.809861 C12.9176431,15.8800141 12.9743109,15.9481701 13.0308723,16.0142413 C13.1294746,15.8999431 13.2276399,15.7794061 13.3254437,15.6530834 C13.2284778,15.6551053 13.1302297,15.65625 13.03125,15.65625 C12.9322703,15.65625 12.8340222,15.6551053 12.7366052,15.6528398 Z M13.03125,12.65625 C12.7892565,12.65625 12.5507393,12.6637061 12.3178636,12.6781728 C12.1929866,12.8647464 12.069808,13.0606185 11.950503,13.2643492 C11.8305236,13.4692315 11.7195022,13.6734532 11.6175668,13.8751412 C11.7195022,14.0765468 11.8305236,14.2807685 11.950503,14.4856508 C12.0695979,14.6890229 12.1925529,14.8845639 12.3178258,15.0712459 C12.5500529,15.0862725 12.7889083,15.09375 13.03125,15.09375 C13.2735917,15.09375 13.5124471,15.0862725 13.7456416,15.0717647 C13.8699471,14.8845639 13.9929021,14.6890229 14.111997,14.4856508 C14.2319764,14.2807685 14.3429978,14.0765468 14.4449332,13.8748588 C14.3429978,13.6734532 14.2319764,13.4692315 14.111997,13.2643492 C13.992692,13.0606185 13.8695134,12.8647464 13.7440113,12.6777664 C13.5117607,12.6637061 13.2732435,12.65625 13.03125,12.65625 Z M10.5901499,12.9420536 L10.3765932,13.0023743 C10.2958762,13.026872 10.2177316,13.0525406 10.1423647,13.0793377 C9.45715596,13.3229675 9.09375,13.6284566 9.09375,13.875 C9.09375,14.1215434 9.45715596,14.4270325 10.1423647,14.6706623 C10.2822456,14.7203977 10.4316953,14.7662456 10.5894001,14.8079358 C10.6988653,14.5063752 10.8302618,14.1938323 10.9827581,13.8755808 C10.8305382,13.556825 10.6989796,13.2439419 10.5901499,12.9420536 Z M15.4730999,12.9420642 L15.4207074,13.0816355 C15.3226914,13.3399975 15.2085548,13.6056617 15.0792607,13.8754233 C15.2322382,14.1938323 15.3636347,14.5063752 15.4723501,14.8079464 C15.6308047,14.7662456 15.7802544,14.7203977 15.9201353,14.6706623 C16.605344,14.4270325 16.96875,14.1215434 16.96875,13.875 C16.96875,13.6284566 16.605344,13.3229675 15.9201353,13.0793377 C15.7802544,13.0296023 15.6308047,12.9837544 15.4730999,12.9420642 Z M13.5217694,11.211114 L13.4187911,11.3129016 C13.6359735,11.562622 13.851483,11.8387326 14.0611174,12.1369038 C14.4212314,12.1673492 14.7647219,12.2141126 15.0858821,12.2755291 C15.3575002,11.3359761 15.348945,10.6278658 15.0402346,10.4521431 C14.7455792,10.2844208 14.1677698,10.585176 13.5217694,11.211114 Z M11.0222654,10.4521431 C10.713555,10.6278658 10.7049998,11.3359761 10.9759656,12.2749541 C11.2977781,12.2141126 11.6412686,12.1673492 12.0012316,12.1366417 C12.211017,11.8387326 12.4265265,11.562622 12.6437089,11.3129016 C11.9565606,10.6182551 11.3324846,10.2755616 11.0222654,10.4521431 Z M13.0316277,11.7357587 L12.994498,11.7785194 C12.9087115,11.8800075 12.8227452,11.9862415 12.7370563,12.0969166 C12.8340222,12.0948947 12.9322703,12.09375 13.03125,12.09375 C13.1302297,12.09375 13.2284778,12.0948947 13.3258948,12.0971602 C13.2276399,11.9705939 13.1294746,11.8500569 13.0316277,11.7357587 Z" id="path-11"></path>
        <filter x="-16.7%" y="-18.6%" width="133.3%" height="137.2%" filterUnits="objectBoundingBox" id="filter-12">
            <feOffset dx="0" dy="0" in="SourceAlpha" result="shadowOffsetOuter1"></feOffset>
            <feGaussianBlur stdDeviation="0.5" in="shadowOffsetOuter1" result="shadowBlurOuter1"></feGaussianBlur>
            <feColorMatrix values="0 0 0 0 0   0 0 0 0 0.42905776   0 0 0 0 0.968670281  0 0 0 0.5 0" type="matrix" in="shadowBlurOuter1"></feColorMatrix>
        </filter>
    </defs>
    <g id="places/128/network-workgroup" stroke="none" fill="none">
        <g id="places/128/folder">
            <g id="Guide/128"></g>
            <g id="Group-2" filter="url(#filter-1)" stroke-width="1" fill-rule="evenodd" transform="translate(1.6875, 2.8125)">
                <path d="M10.6535763,1.28949808 C10.6730653,1.33289881 10.7014516,1.39738394 10.7283226,1.44144937 C11.0316567,1.93888363 11.5752985,2.25 12.1689037,2.25 L18,2.25 C18.9319805,2.25 19.6875,3.00551948 19.6875,3.9375 L19.6875,16.78125 C19.6875,17.5579004 19.0579004,18.1875 18.28125,18.1875 L0.703125,18.1875 C0.314799785,18.1875 0,17.8727002 0,17.484375 L0,1.40625 C0,0.629599571 0.629599571,0 1.40625,0 L9.01859632,0 C9.63574209,0 10.198883,0.336281469 10.4941196,0.868601987 C10.505146,0.888482871 10.5203213,0.924101861 10.5396456,0.975458957 L10.5929464,1.12465005 C10.619832,1.20428244 10.6400419,1.25923178 10.6535763,1.28949808 Z" id="Mask" fill="url(#linearGradient-2)"></path>
                <g id="路径">
                    <use fill="url(#linearGradient-3)" fill-rule="evenodd" xlink:href="#path-4"></use>
                    <use fill="black" fill-opacity="1" filter="url(#filter-5)" xlink:href="#path-4"></use>
                </g>
                <g id="Group">
                    <g id="路径">
                        <use fill="url(#linearGradient-6)" fill-rule="evenodd" xlink:href="#path-7"></use>
                        <use fill="black" fill-opacity="1" filter="url(#filter-8)" xlink:href="#path-7"></use>
                    </g>
                    <path d="M1.78125,0 C1.00459957,0 0.375,0.629599571 0.375,1.40625 L0.375,17.484375 C0.375,17.6655934 0.521906566,17.8130156 0.703125,17.8130156 L0.796828125,17.8130156 C0.978046239,17.8130147 1.12495267,17.6655931 1.12495394,17.484375 L1.12498283,5.71875 C1.12497972,4.94986607 1.74204933,4.32510581 2.50797386,4.3126864 L2.5312308,4.3125 L2.9062308,4.3125 L2.88297386,4.3126864 C2.11704933,4.32510581 1.49997972,4.94986607 1.49998283,5.71875 L1.5,17.484375 C1.5,17.8677847 1.19312036,18.179519 0.811586678,18.1875 L0.796875,18.1875 L0.703125,18.1875 C0.314799785,18.1875 0,17.8727002 0,17.484375 L0,1.40625 C0,0.629599571 0.629599571,0 1.40625,0 L1.78125,0 Z" id="路径" fill="url(#linearGradient-9)"></path>
                </g>
            </g>
        </g>
        <g id="合并形状">
            <use fill="black" fill-opacity="1" filter="url(#filter-12)" xlink:href="#path-11"></use>
            <use fill="url(#linearGradient-10)" fill-rule="evenodd" xlink:href="#path-11"></use>
        </g>
    </g>
</svg>