<?xml version="1.0" encoding="UTF-8"?>
<svg width="25px" height="24px" viewBox="0 0 25 24" version="1.1" xmlns="http://www.w3.org/2000/svg" xmlns:xlink="http://www.w3.org/1999/xlink">
    <title>places/128/network-server</title>
    <defs>
        <filter x="-7.1%" y="-8.2%" width="114.3%" height="116.5%" filterUnits="objectBoundingBox" id="filter-1">
            <feOffset dx="0" dy="0" in="SourceAlpha" result="shadowOffsetOuter1"></feOffset>
            <feGaussianBlur stdDeviation="0.5" in="shadowOffsetOuter1" result="shadowBlurOuter1"></feGaussianBlur>
            <feColorMatrix values="0 0 0 0 0   0 0 0 0 0   0 0 0 0 0  0 0 0 0.2 0" type="matrix" in="shadowBlurOuter1" result="shadowMatrixOuter1"></feColorMatrix>
            <feMerge>
                <feMergeNode in="shadowMatrixOuter1"></feMergeNode>
                <feMergeNode in="SourceGraphic"></feMergeNode>
            </feMerge>
        </filter>
        <linearGradient x1="50%" y1="0%" x2="50%" y2="100%" id="linearGradient-2">
            <stop stop-color="#5C95FA" offset="0%"></stop>
            <stop stop-color="#053BAF" offset="100%"></stop>
        </linearGradient>
        <linearGradient x1="50%" y1="0%" x2="50%" y2="100%" id="linearGradient-3">
            <stop stop-color="#5C95FA" offset="0%"></stop>
            <stop stop-color="#053BAF" offset="100%"></stop>
        </linearGradient>
        <path d="M21,5.71875 L21,16.78125 C21,17.5579004 20.3704004,18.1875 19.59375,18.1875 L0.75,18.1875 L0.75,17.8165538 L0.815109819,17.8165538 C1.20338726,17.8226448 1.49389179,17.5092833 1.49998283,17.1210059 L1.49998283,5.71875 C1.49997972,4.94986607 2.11704933,4.32510581 2.88297386,4.3126864 L2.9062308,4.3125 L19.59375,4.3125 C20.3704004,4.3125 21,4.94209957 21,5.71875 Z" id="path-4"></path>
        <filter x="-7.4%" y="-10.8%" width="114.8%" height="121.6%" filterUnits="objectBoundingBox" id="filter-5">
            <feGaussianBlur stdDeviation="1" in="SourceAlpha" result="shadowBlurInner1"></feGaussianBlur>
            <feOffset dx="-1" dy="0" in="shadowBlurInner1" result="shadowOffsetInner1"></feOffset>
            <feComposite in="shadowOffsetInner1" in2="SourceAlpha" operator="arithmetic" k2="-1" k3="1" result="shadowInnerInner1"></feComposite>
            <feColorMatrix values="0 0 0 0 0.849517673   0 0 0 0 0.961168321   0 0 0 0 1  0 0 0 0.5 0" type="matrix" in="shadowInnerInner1"></feColorMatrix>
        </filter>
        <linearGradient x1="50%" y1="0%" x2="50%" y2="100%" id="linearGradient-6">
            <stop stop-color="#FFFFFF" stop-opacity="0.2" offset="0%"></stop>
            <stop stop-color="#48A9FF" stop-opacity="0.6" offset="88.128397%"></stop>
            <stop stop-color="#2057FF" offset="100%"></stop>
        </linearGradient>
        <path d="M21,5.71875 L21,16.78125 C21,17.5579004 20.3704004,18.1875 19.59375,18.1875 L0.75,18.1875 L0.75,17.8165538 L0.815109819,17.8165538 C1.20338726,17.8226448 1.49389179,17.5092833 1.49998283,17.1210059 L1.49998283,5.71875 C1.49997972,4.94986607 2.11704933,4.32510581 2.88297386,4.3126864 L2.9062308,4.3125 L19.59375,4.3125 C20.3704004,4.3125 21,4.94209957 21,5.71875 Z" id="path-7"></path>
        <filter x="-2.5%" y="-3.6%" width="104.9%" height="107.2%" filterUnits="objectBoundingBox" id="filter-8">
            <feGaussianBlur stdDeviation="0.5" in="SourceAlpha" result="shadowBlurInner1"></feGaussianBlur>
            <feOffset dx="0" dy="0" in="shadowBlurInner1" result="shadowOffsetInner1"></feOffset>
            <feComposite in="shadowOffsetInner1" in2="SourceAlpha" operator="arithmetic" k2="-1" k3="1" result="shadowInnerInner1"></feComposite>
            <feColorMatrix values="0 0 0 0 1   0 0 0 0 1   0 0 0 0 1  0 0 0 0.5 0" type="matrix" in="shadowInnerInner1" result="shadowMatrixInner1"></feColorMatrix>
            <feGaussianBlur stdDeviation="0.5" in="SourceAlpha" result="shadowBlurInner2"></feGaussianBlur>
            <feOffset dx="0" dy="-0" in="shadowBlurInner2" result="shadowOffsetInner2"></feOffset>
            <feComposite in="shadowOffsetInner2" in2="SourceAlpha" operator="arithmetic" k2="-1" k3="1" result="shadowInnerInner2"></feComposite>
            <feColorMatrix values="0 0 0 0 0   0 0 0 0 0.166509758   0 0 0 0 0.842164855  0 0 0 0.3 0" type="matrix" in="shadowInnerInner2" result="shadowMatrixInner2"></feColorMatrix>
            <feMerge>
                <feMergeNode in="shadowMatrixInner1"></feMergeNode>
                <feMergeNode in="shadowMatrixInner2"></feMergeNode>
            </feMerge>
        </filter>
        <linearGradient x1="50%" y1="50%" x2="-8.8748453e-13%" y2="50%" id="linearGradient-9">
            <stop stop-color="#1955FB" offset="0%"></stop>
            <stop stop-color="#053BAF" offset="100%"></stop>
        </linearGradient>
        <linearGradient x1="50%" y1="0%" x2="50%" y2="100%" id="linearGradient-10">
            <stop stop-color="#FFFFFF" offset="0%"></stop>
            <stop stop-color="#FFFFFF" stop-opacity="0.6" offset="100%"></stop>
        </linearGradient>
        <path d="M12.75,9.84375 C15.027983,9.84375 16.875,11.690767 16.875,13.96875 C16.875,16.246733 15.027983,18.09375 12.75,18.09375 C10.472017,18.09375 8.625,16.246733 8.625,13.96875 C8.625,11.690767 10.472017,9.84375 12.75,9.84375 Z M14.2120658,15.6583721 C14.1975744,15.6673358 14.1829777,15.6764054 14.168279,15.6855802 C13.7298946,15.9592143 13.291544,16.2690128 12.8834235,16.6079817 C12.5515146,16.8836523 12.2551847,17.1660751 12.0024263,17.4529139 C12.2457009,17.5043905 12.4947173,17.53125 12.75,17.53125 C13.3866952,17.53125 13.9844115,17.3641723 14.5016914,17.071474 C14.5321258,16.6237404 14.5246573,16.197205 14.4835208,15.790113 C14.3825385,15.7669923 14.2901696,15.7211947 14.2120658,15.6583721 Z M10.8759594,14.1199972 C10.7863247,14.1640382 10.685514,14.1887755 10.5789606,14.1887755 C10.5079571,14.1887755 10.4395035,14.177791 10.3752077,14.1574299 C10.0275894,14.7590564 9.81332526,15.3651347 9.70304644,15.9221267 L9.72003641,15.8432201 C10.13032,16.5049513 10.7513265,17.0223656 11.4892919,17.3016989 C11.7889441,16.9331724 12.1541,16.5757578 12.5698572,16.2304461 C12.9702892,15.8978629 13.3966187,15.5935185 13.8245087,15.3220549 C12.862834,15.19788 12.0045628,14.8734295 11.2467681,14.3803458 C11.1181117,14.2966314 10.9945384,14.2096887 10.8759594,14.1199972 Z M16.0693589,15.2647891 L15.9525381,15.2843491 C15.7204024,15.3191697 15.4929185,15.3441937 15.2700591,15.3597144 C15.2155331,15.5119191 15.1078483,15.6388902 14.9694162,15.7182164 C15.0031385,16.041974 15.0168536,16.3767911 15.0095543,16.7227924 C15.4769428,16.3392571 15.8452897,15.838144 16.0693589,15.2647891 Z M9.45280128,12.6165302 L9.41742552,12.7070531 C9.26883561,13.0992557 9.1875,13.5245151 9.1875,13.96875 C9.1875,14.3898399 9.26058109,14.7938801 9.39475022,15.1688775 C9.53232167,14.7368732 9.72861711,14.2908065 9.99269034,13.8481917 C9.93635327,13.749639 9.90414937,13.6355395 9.90414937,13.5139642 C9.90414937,13.4256134 9.92115679,13.3412108 9.95207415,13.2638538 C9.76548016,13.0523869 9.59932093,12.8351781 9.45280128,12.6165302 Z M14.7895025,11.0475524 L14.5144708,11.11718 C14.0959526,11.2313549 13.7058813,11.3697681 13.3430939,11.5306781 C13.3476484,11.5623156 13.3500056,11.5946601 13.3500056,11.6275518 C13.3500056,11.7232542 13.3300501,11.8143241 13.2940758,11.8968246 C13.4044377,12.0210778 13.5121879,12.1511752 13.6167401,12.2872424 C14.1125062,12.9324468 14.4888067,13.6570003 14.7248557,14.4634809 C14.9645525,14.4955732 15.1645465,14.6536557 15.2559696,14.8688608 C15.566372,14.846467 15.8869399,14.8045032 16.2178894,14.7420425 C16.2212688,14.7414047 16.2246445,14.7408433 16.2280151,14.7403572 C16.2834079,14.4933238 16.3125,14.2344304 16.3125,13.96875 C16.3125,12.7599475 15.7102649,11.6916457 14.7895025,11.0475524 Z M12.2401168,12.1432683 C11.8203998,12.4310711 11.4502506,12.7580976 11.1266087,13.1197636 C11.2066175,13.230684 11.2537719,13.3668508 11.2537719,13.5139642 C11.2537719,13.6010047 11.2372652,13.6842133 11.2072135,13.7606283 C11.3022273,13.8310279 11.4006263,13.8995022 11.5024527,13.9657589 C12.2363839,14.4433149 13.0731506,14.7501848 14.0208948,14.8514008 C14.0711596,14.7418475 14.149905,14.6480432 14.2476331,14.5794858 C14.0282306,13.8394351 13.6817435,13.1758484 13.2268709,12.583864 C13.1363999,12.4661225 13.0433006,12.3531491 12.9480354,12.244865 C12.8645955,12.2818271 12.7722786,12.3023631 12.6751943,12.3023631 C12.5426069,12.3023631 12.418911,12.264061 12.3145751,12.1979253 L12.2401168,12.1432683 Z M11.1220822,10.7991871 C10.5378699,11.0998862 10.0475272,11.5573657 9.70667266,12.1160071 C9.86556406,12.3821484 10.0577013,12.6490814 10.2829266,12.9074582 C10.3723197,12.8637131 10.4727894,12.8391529 10.5789606,12.8391529 C10.6263206,12.8391529 10.6725461,12.8440399 10.7171601,12.8533368 C11.0884443,12.4311423 11.517356,12.0521754 12.0070639,11.7228084 C12.0026606,11.6916861 12.0003831,11.6598833 12.0003831,11.6275518 C12.0003831,11.5450789 12.0152028,11.4660462 12.0423228,11.3929733 C11.7146717,11.138706 11.3793517,10.9285405 11.0507867,10.760021 Z M12.75,10.40625 C12.3838162,10.40625 12.0305258,10.4615154 11.6980155,10.5641595 C11.9228923,10.6991484 12.1473945,10.8534826 12.3683425,11.0264607 C12.4604161,10.9793326 12.5647186,10.9527406 12.6751943,10.9527406 C12.8414327,10.9527406 12.9936935,11.0129522 13.1113431,11.112742 C13.4516661,10.9602917 13.8140301,10.8267397 14.199091,10.7134049 C13.7577424,10.5162884 13.2667071,10.40625 12.75,10.40625 Z" id="path-11"></path>
        <filter x="-18.2%" y="-18.2%" width="136.4%" height="136.4%" filterUnits="objectBoundingBox" id="filter-12">
            <feOffset dx="0" dy="0" in="SourceAlpha" result="shadowOffsetOuter1"></feOffset>
            <feGaussianBlur stdDeviation="0.5" in="shadowOffsetOuter1" result="shadowBlurOuter1"></feGaussianBlur>
            <feColorMatrix values="0 0 0 0 0   0 0 0 0 0.42905776   0 0 0 0 0.968670281  0 0 0 0.5 0" type="matrix" in="shadowBlurOuter1"></feColorMatrix>
        </filter>
    </defs>
    <g id="places/128/network-server" stroke="none" fill="none" transform="translate(0.75, 0)">
        <g id="places/128/folder">
            <g id="Guide/128"></g>
            <g id="Group-2" filter="url(#filter-1)" stroke-width="1" fill-rule="evenodd" transform="translate(1.6875, 2.8125)">
                <path d="M10.6535763,1.28949808 C10.6730653,1.33289881 10.7014516,1.39738394 10.7283226,1.44144937 C11.0316567,1.93888363 11.5752985,2.25 12.1689037,2.25 L18,2.25 C18.9319805,2.25 19.6875,3.00551948 19.6875,3.9375 L19.6875,16.78125 C19.6875,17.5579004 19.0579004,18.1875 18.28125,18.1875 L0.703125,18.1875 C0.314799785,18.1875 0,17.8727002 0,17.484375 L0,1.40625 C0,0.629599571 0.629599571,0 1.40625,0 L9.01859632,0 C9.63574209,0 10.198883,0.336281469 10.4941196,0.868601987 C10.505146,0.888482871 10.5203213,0.924101861 10.5396456,0.975458957 L10.5929464,1.12465005 C10.619832,1.20428244 10.6400419,1.25923178 10.6535763,1.28949808 Z" id="Mask" fill="url(#linearGradient-2)"></path>
                <g id="路径">
                    <use fill="url(#linearGradient-3)" fill-rule="evenodd" xlink:href="#path-4"></use>
                    <use fill="black" fill-opacity="1" filter="url(#filter-5)" xlink:href="#path-4"></use>
                </g>
                <g id="Group">
                    <g id="路径">
                        <use fill="url(#linearGradient-6)" fill-rule="evenodd" xlink:href="#path-7"></use>
                        <use fill="black" fill-opacity="1" filter="url(#filter-8)" xlink:href="#path-7"></use>
                    </g>
                    <path d="M1.78125,0 C1.00459957,0 0.375,0.629599571 0.375,1.40625 L0.375,17.484375 C0.375,17.6655934 0.521906566,17.8130156 0.703125,17.8130156 L0.796828125,17.8130156 C0.978046239,17.8130147 1.12495267,17.6655931 1.12495394,17.484375 L1.12498283,5.71875 C1.12497972,4.94986607 1.74204933,4.32510581 2.50797386,4.3126864 L2.5312308,4.3125 L2.9062308,4.3125 L2.88297386,4.3126864 C2.11704933,4.32510581 1.49997972,4.94986607 1.49998283,5.71875 L1.5,17.484375 C1.5,17.8677847 1.19312036,18.179519 0.811586678,18.1875 L0.796875,18.1875 L0.703125,18.1875 C0.314799785,18.1875 0,17.8727002 0,17.484375 L0,1.40625 C0,0.629599571 0.629599571,0 1.40625,0 L1.78125,0 Z" id="路径" fill="url(#linearGradient-9)"></path>
                </g>
            </g>
        </g>
        <g id="Combined-Shape">
            <use fill="black" fill-opacity="1" filter="url(#filter-12)" xlink:href="#path-11"></use>
            <use fill="url(#linearGradient-10)" fill-rule="evenodd" xlink:href="#path-11"></use>
        </g>
    </g>
</svg>