<?xml version="1.0" encoding="UTF-8"?>
<svg width="25px" height="24px" viewBox="0 0 25 24" version="1.1" xmlns="http://www.w3.org/2000/svg" xmlns:xlink="http://www.w3.org/1999/xlink">
    <title>places/128/safebox</title>
    <defs>
        <filter x="-10.3%" y="-5.1%" width="120.5%" height="120.5%" filterUnits="objectBoundingBox" id="filter-1">
            <feOffset dx="0" dy="1" in="SourceAlpha" result="shadowOffsetOuter1"></feOffset>
            <feGaussianBlur stdDeviation="0.5" in="shadowOffsetOuter1" result="shadowBlurOuter1"></feGaussianBlur>
            <feColorMatrix values="0 0 0 0 0   0 0 0 0 0   0 0 0 0 0  0 0 0 0.2 0" type="matrix" in="shadowBlurOuter1" result="shadowMatrixOuter1"></feColorMatrix>
            <feMerge>
                <feMergeNode in="shadowMatrixOuter1"></feMergeNode>
                <feMergeNode in="SourceGraphic"></feMergeNode>
            </feMerge>
        </filter>
        <linearGradient x1="50%" y1="0%" x2="50%" y2="100%" id="linearGradient-2">
            <stop stop-color="#B4B3B9" offset="0%"></stop>
            <stop stop-color="#5D5D65" offset="100%"></stop>
        </linearGradient>
        <path d="M3.8458278,0 L15.6541722,2.26708535e-16 C16.9914503,-1.31724187e-16 17.4763797,0.139238417 17.9652686,0.400699056 C18.4541574,0.662159695 18.8378403,1.04584256 19.0993009,1.53473144 C19.3607616,2.02362033 19.5,2.50854969 19.5,3.8458278 L19.5,15.6541722 C19.5,16.9914503 19.3607616,17.4763797 19.0993009,17.9652686 C18.8378403,18.4541574 18.4541574,18.8378403 17.9652686,19.0993009 C17.4763797,19.3607616 16.9914503,19.5 15.6541722,19.5 L3.8458278,19.5 C2.50854969,19.5 2.02362033,19.3607616 1.53473144,19.0993009 C1.04584256,18.8378403 0.662159695,18.4541574 0.400699056,17.9652686 C0.139238417,17.4763797 0,16.9914503 0,15.6541722 L0,3.8458278 C0,2.50854969 0.139238417,2.02362033 0.400699056,1.53473144 C0.662159695,1.04584256 1.04584256,0.662159695 1.53473144,0.400699056 C2.02362033,0.139238417 2.50854969,0 3.8458278,0 Z" id="path-3"></path>
        <filter x="-7.7%" y="-7.7%" width="115.4%" height="115.4%" filterUnits="objectBoundingBox" id="filter-4">
            <feGaussianBlur stdDeviation="1" in="SourceAlpha" result="shadowBlurInner1"></feGaussianBlur>
            <feOffset dx="0" dy="-1" in="shadowBlurInner1" result="shadowOffsetInner1"></feOffset>
            <feComposite in="shadowOffsetInner1" in2="SourceAlpha" operator="arithmetic" k2="-1" k3="1" result="shadowInnerInner1"></feComposite>
            <feColorMatrix values="0 0 0 0 0   0 0 0 0 0   0 0 0 0 0  0 0 0 0.5 0" type="matrix" in="shadowInnerInner1"></feColorMatrix>
        </filter>
        <linearGradient x1="0%" y1="32.2660607%" x2="100%" y2="32.2660607%" id="linearGradient-5">
            <stop stop-color="#888888" offset="0%"></stop>
            <stop stop-color="#595959" offset="100%"></stop>
        </linearGradient>
        <rect id="path-6" x="17.625" y="7.125" width="1" height="5.25" rx="0.5"></rect>
        <filter x="-66.7%" y="-9.5%" width="233.3%" height="119.0%" filterUnits="objectBoundingBox" id="filter-7">
            <feOffset dx="1" dy="0" in="SourceAlpha" result="shadowOffsetInner1"></feOffset>
            <feComposite in="shadowOffsetInner1" in2="SourceAlpha" operator="arithmetic" k2="-1" k3="1" result="shadowInnerInner1"></feComposite>
            <feColorMatrix values="0 0 0 0 1   0 0 0 0 1   0 0 0 0 1  0 0 0 0.3 0" type="matrix" in="shadowInnerInner1"></feColorMatrix>
        </filter>
        <linearGradient x1="50%" y1="18.0873075%" x2="50%" y2="100%" id="linearGradient-8">
            <stop stop-color="#FFFFFF" stop-opacity="0.706853693" offset="0%"></stop>
            <stop stop-color="#000000" stop-opacity="0.106537505" offset="100%"></stop>
        </linearGradient>
        <linearGradient x1="50%" y1="0%" x2="50%" y2="100%" id="linearGradient-9">
            <stop stop-color="#030303" offset="0%"></stop>
            <stop stop-color="#414141" offset="100%"></stop>
        </linearGradient>
        <linearGradient x1="50%" y1="0%" x2="50%" y2="100%" id="linearGradient-10">
            <stop stop-color="#000000" offset="0%"></stop>
            <stop stop-color="#ABABBB" offset="100%"></stop>
        </linearGradient>
        <linearGradient x1="50%" y1="0%" x2="50%" y2="100%" id="linearGradient-11">
            <stop stop-color="#DCDBE3" offset="0%"></stop>
            <stop stop-color="#ACACB4" offset="100%"></stop>
        </linearGradient>
    </defs>
    <g id="places/128/safebox" stroke="none" fill="none" transform="translate(0.375, 0)" fill-rule="evenodd" stroke-width="1">
        <g id="deepin-launcher" filter="url(#filter-1)" transform="translate(2.25, 2.25)">
            <g id="矩形">
                <use fill="url(#linearGradient-2)" fill-rule="evenodd" xlink:href="#path-3"></use>
                <use fill="black" fill-opacity="1" filter="url(#filter-4)" xlink:href="#path-3"></use>
            </g>
            <g id="矩形">
                <use fill="url(#linearGradient-5)" fill-rule="evenodd" xlink:href="#path-6"></use>
                <use fill="black" fill-opacity="1" filter="url(#filter-7)" xlink:href="#path-6"></use>
                <rect stroke="#323232" stroke-width="0.1875" stroke-linejoin="square" x="17.71875" y="7.21875" width="1" height="5.0625" rx="0.5"></rect>
            </g>
            <path d="M15.6541722,0 C16.9914503,0 17.4763797,0.139238417 17.9652686,0.400699056 C18.4541574,0.662159695 18.8378403,1.04584256 19.0993009,1.53473144 C19.3607616,2.02362033 19.5,2.50854969 19.5,3.8458278 L19.5,15.6541722 C19.5,16.9914503 19.3607616,17.4763797 19.0993009,17.9652686 C18.8378403,18.4541574 18.4541574,18.8378403 17.9652686,19.0993009 C17.4763797,19.3607616 16.9914503,19.5 15.6541722,19.5 L3.8458278,19.5 C2.50854969,19.5 2.02362033,19.3607616 1.53473144,19.0993009 C1.04584256,18.8378403 0.662159695,18.4541574 0.400699056,17.9652686 C0.139238417,17.4763797 0,16.9914503 0,15.6541722 L0,3.8458278 C0,2.50854969 0.139238417,2.02362033 0.400699056,1.53473144 C0.662159695,1.04584256 1.04584256,0.662159695 1.53473144,0.400699056 C2.02362033,0.139238417 2.50854969,0 3.8458278,0 L15.6541722,0 Z M3.8458278,0.1875 C2.65490874,0.1875 2.14788562,0.285410682 1.62315623,0.56603903 C1.16694268,0.810024707 0.810024707,1.16694268 0.56603903,1.62315623 C0.285410682,2.14788562 0.1875,2.65490874 0.1875,3.8458278 L0.1875,15.6541722 C0.1875,16.8450913 0.285410682,17.3521144 0.56603903,17.8768438 C0.810024707,18.3330573 1.16694268,18.6899753 1.62315623,18.933961 C2.14788562,19.2145893 2.65490874,19.3125 3.8458278,19.3125 L15.6541722,19.3125 C16.8450913,19.3125 17.3521144,19.2145893 17.8768438,18.933961 C18.3330573,18.6899753 18.6899753,18.3330573 18.933961,17.8768438 C19.2145893,17.3521144 19.3125,16.8450913 19.3125,15.6541722 L19.3125,3.8458278 C19.3125,2.65490874 19.2145893,2.14788562 18.933961,1.62315623 C18.6899753,1.16694268 18.3330573,0.810024707 17.8768438,0.56603903 C17.3521144,0.285410682 16.8450913,0.1875 15.6541722,0.1875 L3.8458278,0.1875 Z" id="矩形" fill="url(#linearGradient-8)" fill-rule="nonzero"></path>
            <g id="编组-2" transform="translate(3.375, 3.375)">
                <circle id="椭圆形" stroke="url(#linearGradient-10)" stroke-width="0.1875" fill="url(#linearGradient-9)" cx="6.375" cy="6.375" r="6.46875"></circle>
                <path d="M6.278125,0.5625 L6.471875,0.5625 L6.471875,1.14375 L6.278125,1.14375 Z M7.28892678,0.633982768 L7.47973328,0.667627103 L7.37880028,1.24004661 L7.18799378,1.20640227 L7.28892678,0.633982768 Z M8.27195936,0.87990344 L8.45402481,0.946169843 L8.2552256,1.49236618 L8.07316015,1.42609978 L8.27195936,0.87990344 Z M9.19735379,1.29278984 L9.36514621,1.38966484 L9.07452121,1.89304211 L8.90672879,1.79616711 L9.19735379,1.29278984 Z M10.0369924,1.86009662 L10.1854135,1.98463672 L9.81179324,2.42990006 L9.66337213,2.30535996 L10.0369924,1.86009662 Z M10.7653633,2.56458646 L10.8899034,2.71300757 L10.44464,3.08662787 L10.3200999,2.93820676 L10.7653633,2.56458646 Z M11.3603352,3.38485379 L11.4572102,3.55264621 L10.9538329,3.84327121 L10.8569579,3.67547879 L11.3603352,3.38485379 Z M11.8038302,4.29597519 L11.8700966,4.47804064 L11.3239002,4.67683985 L11.2576338,4.4947744 L11.8038302,4.29597519 Z M12.0823729,5.27026672 L12.1160172,5.46107322 L11.5435977,5.56200622 L11.5099534,5.37119972 L12.0823729,5.27026672 Z M12.1875,6.278125 L12.1875,6.471875 L11.60625,6.471875 L11.60625,6.278125 L12.1875,6.278125 Z M12.1160172,7.28892678 L12.0823729,7.47973328 L11.5099534,7.37880028 L11.5435977,7.18799378 L12.1160172,7.28892678 Z M11.8700966,8.27195936 L11.8038302,8.45402481 L11.2576338,8.2552256 L11.3239002,8.07316015 L11.8700966,8.27195936 Z M11.4572102,9.19735379 L11.3603352,9.36514621 L10.8569579,9.07452121 L10.9538329,8.90672879 L11.4572102,9.19735379 Z M10.8899034,10.0369924 L10.7653633,10.1854135 L10.3200999,9.81179324 L10.44464,9.66337213 L10.8899034,10.0369924 Z M10.1854135,10.7653633 L10.0369924,10.8899034 L9.66337213,10.44464 L9.81179324,10.3200999 L10.1854135,10.7653633 Z M9.36514621,11.3603352 L9.19735379,11.4572102 L8.90672879,10.9538329 L9.07452121,10.8569579 L9.36514621,11.3603352 Z M8.45402481,11.8038302 L8.27195936,11.8700966 L8.07316015,11.3239002 L8.2552256,11.2576338 L8.45402481,11.8038302 Z M7.47973328,12.0823729 L7.28892678,12.1160172 L7.18799378,11.5435977 L7.37880028,11.5099534 L7.47973328,12.0823729 Z M6.471875,12.1875 L6.278125,12.1875 L6.278125,11.60625 L6.471875,11.60625 Z M5.46107322,12.1160172 L5.27026672,12.0823729 L5.37119972,11.5099534 L5.56200622,11.5435977 L5.46107322,12.1160172 Z M4.47804064,11.8700966 L4.29597519,11.8038302 L4.4947744,11.2576338 L4.67683985,11.3239002 L4.47804064,11.8700966 Z M3.55264621,11.4572102 L3.38485379,11.3603352 L3.67547879,10.8569579 L3.84327121,10.9538329 L3.55264621,11.4572102 Z M2.71300757,10.8899034 L2.56458646,10.7653633 L2.93820676,10.3200999 L3.08662787,10.44464 L2.71300757,10.8899034 Z M1.98463672,10.1854135 L1.86009662,10.0369924 L2.30535996,9.66337213 L2.42990006,9.81179324 L1.98463672,10.1854135 Z M1.38966484,9.36514621 L1.29278984,9.19735379 L1.79616711,8.90672879 L1.89304211,9.07452121 L1.38966484,9.36514621 Z M0.946169843,8.45402481 L0.87990344,8.27195936 L1.42609978,8.07316015 L1.49236618,8.2552256 L0.946169843,8.45402481 Z M0.667627103,7.47973328 L0.633982768,7.28892678 L1.20640227,7.18799378 L1.24004661,7.37880028 L0.667627103,7.47973328 Z M0.5625,6.471875 L0.5625,6.278125 L1.14375,6.278125 L1.14375,6.471875 L0.5625,6.471875 Z M0.633982768,5.46107322 L0.667627103,5.27026672 L1.24004661,5.37119972 L1.20640227,5.56200622 L0.633982768,5.46107322 Z M0.87990344,4.47804064 L0.946169843,4.29597519 L1.49236618,4.4947744 L1.42609978,4.67683985 L0.87990344,4.47804064 Z M1.29278984,3.55264621 L1.38966484,3.38485379 L1.89304211,3.67547879 L1.79616711,3.84327121 L1.29278984,3.55264621 Z M1.86009662,2.71300757 L1.98463672,2.56458646 L2.42990006,2.93820676 L2.30535996,3.08662787 L1.86009662,2.71300757 Z M2.56458646,1.98463672 L2.71300757,1.86009662 L3.08662787,2.30535996 L2.93820676,2.42990006 L2.56458646,1.98463672 Z M3.38485379,1.38966484 L3.55264621,1.29278984 L3.84327121,1.79616711 L3.67547879,1.89304211 L3.38485379,1.38966484 Z M4.29597519,0.946169843 L4.47804064,0.87990344 L4.67683985,1.42609978 L4.4947744,1.49236618 L4.29597519,0.946169843 Z M5.27026672,0.667627103 L5.46107322,0.633982768 L5.56200622,1.20640227 L5.37119972,1.24004661 L5.27026672,0.667627103 Z" id="形状结合" fill-opacity="0.4" fill="#FFFFFF"></path>
                <circle id="椭圆形" fill="url(#linearGradient-11)" cx="6.375" cy="6.375" r="3.75"></circle>
                <circle id="椭圆形" fill="url(#linearGradient-9)" cx="6.375" cy="6.375" r="1.5"></circle>
                <circle id="椭圆形" fill="url(#linearGradient-11)" cx="6.375" cy="6.375" r="1"></circle>
            </g>
        </g>
    </g>
</svg>